<?xml version="1.0" encoding="UTF-8"?>
<svg version="1.1" xmlns="http://www.w3.org/2000/svg" width="512" height="512">
<path d="M0 0 C168.96 0 337.92 0 512 0 C512 168.96 512 337.92 512 512 C343.04 512 174.08 512 0 512 C0 343.04 0 174.08 0 0 Z " fill="#0F172A" transform="translate(0,0)"/>
<path d="M0 0 C42.62219173 -1.18761525 91.06903506 7.82356618 125 35 C125.59167969 35.42667969 126.18335938 35.85335937 126.79296875 36.29296875 C135.46811944 42.73537288 141.77859674 53.94389832 144.6171875 64.23828125 C145.17547559 68.26593103 145.18433928 72.25098064 145.1875 76.3125 C145.19974609 77.12912109 145.21199219 77.94574219 145.22460938 78.78710938 C145.2451718 87.38905921 143.25598314 94.24405317 139.375 101.875 C139.02091064 102.57189941 138.66682129 103.26879883 138.30200195 103.98681641 C122.37840784 134.40980007 82.65325898 153.83218066 51.39453125 164.1953125 C49.25849695 164.84698398 47.11615518 165.47881091 44.96484375 166.078125 C41.93501047 166.9582105 41.93501047 166.9582105 38.90625 168.3671875 C33.62443302 170.68740652 28.08511523 172.23702917 22.5625 173.875 C21.37833496 174.22651123 20.19416992 174.57802246 18.97412109 174.94018555 C8.36035246 178.02025681 -2.32761161 180.3286687 -13.17089844 182.42431641 C-16.21462951 183.04367418 -19.23409773 183.73870572 -22.2578125 184.44921875 C-41.60174626 188.96870926 -61.27161469 192.64799626 -81 195 C-82.03108887 195.1247168 -83.06217773 195.24943359 -84.12451172 195.37792969 C-113.95726503 198.91023932 -143.9601047 200.6102154 -174 200 C-174.93263672 199.98598145 -175.86527344 199.97196289 -176.82617188 199.95751953 C-198.10919766 199.58270953 -227.10958552 198.75391813 -244 184 C-246.69940692 179.95088963 -246.766613 176.75463171 -246 172 C-240.52013613 162.80797028 -229.90938345 159.85808835 -220.09765625 157.1953125 C-212.05968949 155.19188934 -203.84106731 154.0889366 -195.65234375 152.89453125 C-191.71663355 152.30750787 -187.93993392 151.52880371 -184.09985352 150.50317383 C-180.54397428 149.65110231 -176.93263522 149.13436265 -173.32421875 148.55371094 C-167.19347176 147.53252012 -161.09968749 146.31562969 -155 145.125 C-153.74316406 144.88136719 -152.48632812 144.63773438 -151.19140625 144.38671875 C-147.85492796 143.73823908 -144.5195815 143.08443154 -141.18469238 142.42785645 C-138.88151187 141.97679494 -136.57701471 141.53285521 -134.27246094 141.08886719 C-122.17344757 138.73790461 -110.21160681 135.96628104 -98.25 133 C-96.50139733 132.56992507 -94.75269944 132.14023708 -93.00390625 131.7109375 C-88.78509126 130.67416588 -84.56831846 129.62935239 -80.35211182 128.58203125 C-78.1172415 128.02901147 -75.88093523 127.48227488 -73.64404297 126.9375 C-65.22293381 124.87714682 -56.90496742 122.57554272 -48.625 120 C-47.54089844 119.67 -46.45679688 119.34 -45.33984375 119 C-39.52546522 117.20448625 -33.86047215 115.22975311 -28.234375 112.91113281 C-25.0889654 111.62849856 -21.88697972 110.51492392 -18.6875 109.375 C-3.79091785 103.88649914 10.89119248 96.99119436 24 88 C24.64308105 87.55930176 25.28616211 87.11860352 25.94873047 86.66455078 C38.11901996 78.22225225 49.72616521 69.28512271 53 54 C54.30976705 44.16985361 51.62992784 36.32033773 45.875 28.375 C34.02782026 14.12331866 16.94816381 7.14899367 0 1 C0 0.67 0 0.34 0 0 Z " fill="#2462E9" transform="translate(267,200)"/>
<path d="M0 0 C3.84691867 0.01080802 7.69337764 -0.000029 11.5402832 -0.01269531 C31.75037376 -0.02423633 51.60955254 0.8832619 71.38598633 5.26074219 C72.38887695 5.463125 73.39176758 5.66550781 74.42504883 5.87402344 C82.18507787 7.65555123 89.85050646 11.21466785 95.17114258 17.30371094 C96.94368673 20.15915987 96.84889993 21.95421649 96.38598633 25.26074219 C92.54474792 33.44425009 84.59802929 35.96376187 76.57348633 38.88574219 C70.81937243 40.69233605 65.22714108 41.89981521 59.26098633 42.74121094 C58.39700729 42.86687943 57.53302826 42.99254791 56.64286804 43.12202454 C48.4592598 44.29196432 40.25467223 45.27762404 32.04589844 46.25170898 C12.56568488 48.56415659 -6.8196895 51.26043217 -26.17651367 54.44824219 C-27.20118744 54.61641449 -28.22586121 54.78458679 -29.28158569 54.95785522 C-45.17889282 57.57857935 -60.93164742 60.54824996 -76.61401367 64.26074219 C-78.19463725 64.62448259 -79.77537495 64.98772725 -81.35620117 65.35058594 C-98.22759778 69.25306325 -114.78713715 73.91669594 -131.23901367 79.32324219 C-132.21008057 79.63946533 -133.18114746 79.95568848 -134.18164062 80.28149414 C-140.87762045 82.52076212 -147.24166399 85.22678483 -153.61401367 88.26074219 C-154.33008789 88.59678467 -155.04616211 88.93282715 -155.78393555 89.27905273 C-172.46513377 97.17796987 -191.58351785 107.34177687 -199.48901367 125.01074219 C-202.10211774 132.99088036 -201.40708947 141.32813646 -197.92651367 148.89355469 C-187.78178242 167.19030212 -167.81800292 177.09218807 -148.61401367 183.26074219 C-148.61401367 183.59074219 -148.61401367 183.92074219 -148.61401367 184.26074219 C-160.47131443 184.49273285 -171.86977096 184.1042864 -183.61401367 182.26074219 C-184.5128125 182.12651855 -185.41161133 181.99229492 -186.33764648 181.85400391 C-214.99535273 177.55677562 -245.40388693 170.74215041 -268.61401367 152.26074219 C-269.46608398 151.58398438 -270.3181543 150.90722656 -271.19604492 150.20996094 C-280.38485172 142.45389163 -288.53185415 131.61016875 -289.82104492 119.28076172 C-290.37524272 110.60162841 -290.08928933 102.33876842 -286.61401367 94.26074219 C-286.2350293 93.32101563 -285.85604492 92.38128906 -285.46557617 91.41308594 C-274.95984618 67.8814653 -249.00046162 53.61414867 -226.86401367 42.88574219 C-225.83493896 42.3856665 -224.80586426 41.88559082 -223.74560547 41.37036133 C-217.74068654 38.52754331 -211.74743277 36.21991654 -205.41821289 34.20776367 C-202.08054347 33.08058104 -198.9421481 31.6655815 -195.74584961 30.19384766 C-192.165304 28.62664137 -188.47110974 27.47173192 -184.73901367 26.32324219 C-183.49885498 25.93930298 -183.49885498 25.93930298 -182.23364258 25.54760742 C-123.68906848 7.64201221 -61.07822415 -0.20345062 0 0 Z " fill="#FDFDFD" transform="translate(393.614013671875,97.7392578125)"/>

</svg>
